<svg xmlns="http://www.w3.org/2000/svg" viewBox="0 0 400 400">
  <!-- Background -->
  <rect width="400" height="400" fill="#f8f8ff"/>
  
  <!-- Outer circle segments -->
  <g fill="none" stroke="#e6e6fa" stroke-width="2">
    <path d="M200,50 L200,0"/>
    <path d="M283,71 L317,29"/>
    <path d="M329,117 L371,83"/>
    <path d="M350,200 L400,200"/>
    <path d="M329,283 L371,317"/>
    <path d="M283,329 L317,371"/>
    <path d="M200,350 L200,400"/>
    <path d="M117,329 L83,371"/>
    <path d="M71,283 L29,317"/>
    <path d="M50,200 L0,200"/>
    <path d="M71,117 L29,83"/>
    <path d="M117,71 L83,29"/>
  </g>
  
  <!-- Center image placeholder -->
  <circle cx="200" cy="200" r="40" fill="#e6e6fa" stroke="#dcd0ff" stroke-width="2"/>
  <path d="M185,190 L195,200 L185,210 M215,190 L205,200 L215,210" stroke="#8a2be2" fill="none" stroke-width="2"/>
  
  <!-- Image icon -->
  <rect x="190" y="190" width="20" height="20" fill="#dcd0ff"/>
  <path d="M190,205 L195,200 L200,205 L205,200 L210,205" fill="none" stroke="#8a2be2" stroke-width="1"/>
</svg>